# xmcd
# 
# Track frame offsets:
#     150
#     12562
#     25812
#     38765
#     49540
#     62477
#     72159
#     87760
#     97156
#     110636
#     124599
#     137230
#     150037
#     163261
#     176133
#     187750
#     198751
#     214378
#     224124
#     237605
# 
# Disc length: 3352
# 
# Revision: 3
# Processed by: cddbd v1.5.2PL0 Copyright (c) Steve Scherf et al.
# Submitted via: fre:ac v1.0.31
# 
DISCID=1e0d1614
DTITLE=Little Willie John - Nineteen Sixty Six
DYEAR=1966
DGENRE=Blues
TTITLE0=Country Girl (take 8 - mono)
TTITLE1=Suffering With The Blues (take 4 - mono)
TTITLE2=I Had A Dream (take 7 - mono)
TTITLE3=Never Let Me Go (take 4 - mono)
TTITLE4=If I loved You (take 2 - mono)
TTITLE5=(I Need) Someone (take 12 - mono)
TTITLE6=Welcome To The Club (take 8 - mono)
TTITLE7=Early In The Morning (take 8 - mono)
TTITLE8=In The Dark (take 1 - mono)
TTITLE9=Crying Over You (take 2 - mono)
TTITLE10=You Are My Sunshine (take 3 - mono)
TTITLE11=Country Girl (alt. take - stereo)
TTITLE12=Suffering With The Blues (alt. take - stereo)
TTITLE13=I Had A Dream (alt. take - stereo)
TTITLE14=Endless Sleep (stereo)
TTITLE15=Never Let Me Go (alt. take - stereo)
TTITLE16=Welcome To The Club (alt. take - stereo)
TTITLE17=Early In The Morning (alt. take - stereo)
TTITLE18=In The Dark (alt. take - stereo)
TTITLE19=Crying Over You (alt. take - stereo)
EXTD=
EXTT0=
EXTT1=
EXTT2=
EXTT3=
EXTT4=
EXTT5=
EXTT6=
EXTT7=
EXTT8=
EXTT9=
EXTT10=
EXTT11=
EXTT12=
EXTT13=
EXTT14=
EXTT15=
EXTT16=
EXTT17=
EXTT18=
EXTT19=
PLAYORDER=
